
        <svg xmlns="http://www.w3.org/2000/svg" xmlns:xlink="http://www.w3.org/1999/xlink" version="1.1" width="3162.3593663878037" height="949.8359826752189" viewBox="0 0 3162.3593663878037 949.8359826752189">
			
			<g transform="scale(8.117968319390188) translate(10, 10)">
				<defs id="SvgjsDefs1535"/><g id="SvgjsG1536" featureKey="Df7oLJ-0" transform="matrix(0.9700218878761407,0,0,0.9700218878761407,-15.275905755971339,0.00003255142705883188)" fill="#fff"><path xmlns="http://www.w3.org/2000/svg" d="M66.973,0.008c-0.512,0.076-0.959,0.502-1.053,0.614  c-0.045,0.055-0.147,0.11-0.176,0.175L16.099,55.091c-0.227,0.228-0.351,0.532-0.351,0.877c0,0.692,0.536,1.229,1.228,1.229h25.261  l-10.525,41.05v0.263c-0.017,0.078-0.087,0.178-0.087,0.263c0,0.692,0.536,1.229,1.228,1.229c0.387,0,0.735-0.163,0.965-0.438  L83.9,42.46c0.228-0.227,0.351-0.531,0.351-0.877c0-0.691-0.536-1.228-1.227-1.228H55.92L68.025,1.85  c0.082-0.167,0.087-0.328,0.087-0.526c0-0.692-0.037-0.995-0.613-1.228C67.326,0.025,67.143-0.019,66.973,0.008L66.973,0.008z"/></g><g id="SvgjsG1537" featureKey="Ua4uQk-0" transform="matrix(2.1970445068418334,0,0,2.1970445068418334,85.1211840830017,20.125319944202225)" fill="#fff"><path d="M12.36 20 l-0.98 -2.32 l-6.58 0 l-0.98 2.32 l-3.42 0 l6.22 -14 l2.94 0 l6.22 14 l-3.42 0 z M5.92 15.059999999999999 l4.36 0 l-2.18 -5.16 z M20.36 5.859999999999999 l0 14.14 l-3.16 0 l0 -14.14 l3.16 0 z M27.56 9.42 c2.36 0 5.66 1.78 5 6.48 l-7.26 0 c0.36 1.08 1.3 1.64 2.56 1.64 c1.28 0 1.68 -0.28 2.4 -0.58 l1.74 1.68 c-0.92 0.9 -2.16 1.56 -4.26 1.56 c-2.58 0 -5.66 -1.78 -5.66 -5.36 c0 -3.64 3.12 -5.42 5.48 -5.42 z M27.56 12.120000000000001 c-0.9 0 -1.82 0.52 -2.22 1.56 l4.42 0 c-0.32 -1.04 -1.3 -1.56 -2.2 -1.56 z M41.86 20 l-2.16 -3.04 l-2.14 3.04 l-3.62 0 l3.94 -5.34 l-3.54 -5.06 l3.58 0 l1.78 2.78 l1.8 -2.78 l3.58 0 l-3.56 5.06 l3.96 5.34 l-3.62 0 z M64 6 l-6.14 11.24 l6.22 0 l0 2.76 l-11.3 0 l6.14 -11.24 l-5.8 0 l0 -2.76 l10.88 0 z M70.96000000000001 9.42 c2.36 0 5.66 1.78 5 6.48 l-7.26 0 c0.36 1.08 1.3 1.64 2.56 1.64 c1.28 0 1.68 -0.28 2.4 -0.58 l1.74 1.68 c-0.92 0.9 -2.16 1.56 -4.26 1.56 c-2.58 0 -5.66 -1.78 -5.66 -5.36 c0 -3.64 3.12 -5.42 5.48 -5.42 z M70.96000000000001 12.120000000000001 c-0.9 0 -1.82 0.52 -2.22 1.56 l4.42 0 c-0.32 -1.04 -1.3 -1.56 -2.2 -1.56 z M84.14000000000001 9.44 c1.94 0 3.92 1.3 3.92 4.6 l0 5.96 l-3.16 0 l0 -5.74 c0 -1.58 -0.54 -2.08 -1.54 -2.08 c-1.42 0 -2.24 1.38 -2.44 1.98 l0 5.84 l-3.16 0 l0 -10.4 l3.16 0 l0 1.8 c0.2 -0.5 1.26 -1.96 3.22 -1.96 z M95.10000000000001 9.42 c1.9 0 3.5 0.8 4.48 2.48 l-2.4 1.14 c-0.52 -0.44 -0.94 -0.84 -2.04 -0.84 c-1.2 0 -2.42 0.92 -2.42 2.62 c0 1.68 1.22 2.56 2.42 2.56 c1.1 0 1.52 -0.36 2.04 -0.8 l2.44 1.14 c-1.02 1.68 -2.58 2.44 -4.52 2.44 c-2.32 0 -5.44 -1.66 -5.44 -5.34 c0 -3.62 3.12 -5.4 5.44 -5.4 z M107.62000000000002 9.44 c1.94 0 3.92 1.3 3.92 4.6 l0 5.96 l-3.16 0 l0 -5.74 c0 -1.58 -0.54 -2.08 -1.54 -2.08 c-1.42 0 -2.24 1.38 -2.44 1.98 l0 5.84 l-3.16 0 l0 -14.14 l3.16 0 l0 5.54 c0.2 -0.5 1.26 -1.96 3.22 -1.96 z M116.62 5.859999999999999 l0 2.66 l-3.16 0 l0 -2.66 l3.16 0 z M116.62 9.6 l0 10.4 l-3.16 0 l0 -10.4 l3.16 0 z M125.86000000000001 20 l-3.38 -4.04 l-0.66 0.7 l0 3.34 l-3.16 0 l0 -3.78 l0 -10.36 l3.16 0 l0 6.94 l2.94 -3.2 l3.78 0 l-4.12 4.34 l5.04 6.06 l-3.6 0 z"/></g>
			</g>
		</svg>
	